HIERARCHY
ROOT Hips
{
    OFFSET   0.000000   0.000000   0.000000
    CHANNELS 6 Xposition Yposition Zposition Zrotation Xrotation Yrotation
    JOINT Chest
    {
        OFFSET   0.000000   8.007230   0.000000
        CHANNELS 3 Zrotation Xrotation Yrotation
        JOINT Chest2
        {
            OFFSET   0.000000  22.077100   0.000000
            CHANNELS 3 Zrotation Xrotation Yrotation
            JOINT Neck
            {
                OFFSET   0.000000  23.255100   0.000000
                CHANNELS 3 Zrotation Xrotation Yrotation
                JOINT Head
                {
                    OFFSET   0.000000  14.370100   1.956600
                    CHANNELS 3 Zrotation Xrotation Yrotation
                    End Site
                    {
                        OFFSET   0.000000  19.566000   0.000000
                    }
                }
            }
            JOINT LeftCollar
            {
                OFFSET   3.911900  19.017000  -0.467063
                CHANNELS 3 Zrotation Xrotation Yrotation
                JOINT LeftShoulder
                {
                    OFFSET  10.383700   0.000000   0.000000
                    CHANNELS 3 Zrotation Xrotation Yrotation
                    JOINT LeftElbow
                    {
                        OFFSET  26.662100   0.001193   0.000980
                        CHANNELS 3 Zrotation Xrotation Yrotation
                        JOINT LeftWrist
                        {
                            OFFSET  28.869000  -0.000059  -0.000082
                            CHANNELS 3 Zrotation Xrotation Yrotation
                            JOINT LeftFinger0
                            {
                                OFFSET   2.044650  -2.323450   3.252850
                                CHANNELS 3 Zrotation Xrotation Yrotation
                                JOINT LeftFinger01
                                {
                                    OFFSET   3.088130   0.000000   0.000000
                                    CHANNELS 3 Zrotation Xrotation Yrotation
                                    JOINT LeftFinger02
                                    {
                                        OFFSET   2.639460   0.000000   0.000000
                                        CHANNELS 3 Zrotation Xrotation Yrotation
                                        End Site
                                        {
                                            OFFSET   2.582190   0.000000   0.000000
                                        }
                                    }
                                }
                            }
                            JOINT LeftFinger1
                            {
                                OFFSET   8.364480   0.000000   3.252850
                                CHANNELS 3 Zrotation Xrotation Yrotation
                                JOINT LeftFinger11
                                {
                                    OFFSET   4.646930   0.000000   0.000000
                                    CHANNELS 3 Zrotation Xrotation Yrotation
                                    JOINT LeftFinger12
                                    {
                                        OFFSET   2.323470   0.000000   0.000000
                                        CHANNELS 3 Zrotation Xrotation Yrotation
                                        End Site
                                        {
                                            OFFSET   2.273050   0.000000   0.000000
                                        }
                                    }
                                }
                            }
                            JOINT LeftFinger2
                            {
                                OFFSET   8.364490   0.000016   1.078090
                                CHANNELS 3 Zrotation Xrotation Yrotation
                                JOINT LeftFinger21
                                {
                                    OFFSET   5.111610   0.000000   0.000000
                                    CHANNELS 3 Zrotation Xrotation Yrotation
                                    JOINT LeftFinger22
                                    {
                                        OFFSET   2.788150   0.000016   0.000000
                                        CHANNELS 3 Zrotation Xrotation Yrotation
                                        End Site
                                        {
                                            OFFSET   2.727660   0.000000   0.000000
                                        }
                                    }
                                }
                            }
                            JOINT LeftFinger3
                            {
                                OFFSET   7.899780   0.000015  -1.078090
                                CHANNELS 3 Zrotation Xrotation Yrotation
                                JOINT LeftFinger31
                                {
                                    OFFSET   4.646930   0.000000   0.000000
                                    CHANNELS 3 Zrotation Xrotation Yrotation
                                    JOINT LeftFinger32
                                    {
                                        OFFSET   2.323470   0.000000   0.000000
                                        CHANNELS 3 Zrotation Xrotation Yrotation
                                        End Site
                                        {
                                            OFFSET   2.273050   0.000000   0.000000
                                        }
                                    }
                                }
                            }
                            JOINT LeftFinger4
                            {
                                OFFSET   7.435090   0.000000  -3.252850
                                CHANNELS 3 Zrotation Xrotation Yrotation
                                JOINT LeftFinger41
                                {
                                    OFFSET   3.717550   0.000000   0.000000
                                    CHANNELS 3 Zrotation Xrotation Yrotation
                                    JOINT LeftFinger42
                                    {
                                        OFFSET   1.858770   0.000000   0.000000
                                        CHANNELS 3 Zrotation Xrotation Yrotation
                                        End Site
                                        {
                                            OFFSET   1.818440   0.000000   0.000000
                                        }
                                    }
                                }
                            }
                        }
                    }
                }
            }
            JOINT RightCollar
            {
                OFFSET  -3.911910  19.017000  -0.467062
                CHANNELS 3 Zrotation Xrotation Yrotation
                JOINT RightShoulder
                {
                    OFFSET -10.383700   0.000014   0.000000
                    CHANNELS 3 Zrotation Xrotation Yrotation
                    JOINT RightElbow
                    {
                        OFFSET -26.662100   0.001225   0.001091
                        CHANNELS 3 Zrotation Xrotation Yrotation
                        JOINT RightWrist
                        {
                            OFFSET -28.869000  -0.000020  -0.000085
                            CHANNELS 3 Zrotation Xrotation Yrotation
                            JOINT RightFinger0
                            {
                                OFFSET  -2.044650  -2.323490   3.252850
                                CHANNELS 3 Zrotation Xrotation Yrotation
                                JOINT RightFinger01
                                {
                                    OFFSET  -3.088130   0.000000   0.000000
                                    CHANNELS 3 Zrotation Xrotation Yrotation
                                    JOINT RightFinger02
                                    {
                                        OFFSET  -2.639460   0.000000   0.000000
                                        CHANNELS 3 Zrotation Xrotation Yrotation
                                        End Site
                                        {
                                            OFFSET  -2.582190   0.000000   0.000000
                                        }
                                    }
                                }
                            }
                            JOINT RightFinger1
                            {
                                OFFSET  -8.364480   0.000000   3.252850
                                CHANNELS 3 Zrotation Xrotation Yrotation
                                JOINT RightFinger11
                                {
                                    OFFSET  -4.646930   0.000000   0.000000
                                    CHANNELS 3 Zrotation Xrotation Yrotation
                                    JOINT RightFinger12
                                    {
                                        OFFSET  -2.323470   0.000000   0.000000
                                        CHANNELS 3 Zrotation Xrotation Yrotation
                                        End Site
                                        {
                                            OFFSET  -2.273050   0.000000   0.000000
                                        }
                                    }
                                }
                            }
                            JOINT RightFinger2
                            {
                                OFFSET  -8.364480   0.000000   1.078090
                                CHANNELS 3 Zrotation Xrotation Yrotation
                                JOINT RightFinger21
                                {
                                    OFFSET  -5.111620   0.000000   0.000000
                                    CHANNELS 3 Zrotation Xrotation Yrotation
                                    JOINT RightFinger22
                                    {
                                        OFFSET  -2.788160   0.000000   0.000000
                                        CHANNELS 3 Zrotation Xrotation Yrotation
                                        End Site
                                        {
                                            OFFSET  -2.727660   0.000000   0.000000
                                        }
                                    }
                                }
                            }
                            JOINT RightFinger3
                            {
                                OFFSET  -7.899780   0.000000  -1.078090
                                CHANNELS 3 Zrotation Xrotation Yrotation
                                JOINT RightFinger31
                                {
                                    OFFSET  -4.646930   0.000000   0.000000
                                    CHANNELS 3 Zrotation Xrotation Yrotation
                                    JOINT RightFinger32
                                    {
                                        OFFSET  -2.323470   0.000000   0.000000
                                        CHANNELS 3 Zrotation Xrotation Yrotation
                                        End Site
                                        {
                                            OFFSET  -2.273050   0.000000   0.000000
                                        }
                                    }
                                }
                            }
                            JOINT RightFinger4
                            {
                                OFFSET  -7.435090   0.000000  -3.252850
                                CHANNELS 3 Zrotation Xrotation Yrotation
                                JOINT RightFinger41
                                {
                                    OFFSET  -3.717550   0.000000   0.000000
                                    CHANNELS 3 Zrotation Xrotation Yrotation
                                    JOINT RightFinger42
                                    {
                                        OFFSET  -1.858760   0.000000   0.000000
                                        CHANNELS 3 Zrotation Xrotation Yrotation
                                        End Site
                                        {
                                            OFFSET  -1.818440   0.000000   0.000000
                                        }
                                    }
                                }
                            }
                        }
                    }
                }
            }
        }
    }
    JOINT LeftHip
    {
        OFFSET   9.783030   0.000000   0.000000
        CHANNELS 3 Zrotation Xrotation Yrotation
        JOINT LeftKnee
        {
            OFFSET   0.000063 -41.789100   0.000608
            CHANNELS 3 Zrotation Xrotation Yrotation
            JOINT LeftAnkle
            {
                OFFSET   0.000048 -41.133200  -0.000184
                CHANNELS 3 Zrotation Xrotation Yrotation
                JOINT LeftToe
                {
                    OFFSET   0.000000  -6.358960  14.674500
                    CHANNELS 3 Zrotation Xrotation Yrotation
                    End Site
                    {
                        OFFSET   0.000000   0.000000   3.913200
                    }
                }
            }
        }
    }
    JOINT RightHip
    {
        OFFSET  -9.783030   0.000000   0.000000
        CHANNELS 3 Zrotation Xrotation Yrotation
        JOINT RightKnee
        {
            OFFSET   0.000071 -41.789100   0.001239
            CHANNELS 3 Zrotation Xrotation Yrotation
            JOINT RightAnkle
            {
                OFFSET   0.000037 -41.133200  -0.000166
                CHANNELS 3 Zrotation Xrotation Yrotation
                JOINT RightToe
                {
                    OFFSET   0.000000  -6.358960  14.674500
                    CHANNELS 3 Zrotation Xrotation Yrotation
                    End Site
                    {
                        OFFSET   0.000000   0.000000   3.913200
                    }
                }
            }
        }
    }
}
MOTION
Frames: 4
Frame Time:   0.016667
  0.260435  90.070700  -0.349936  -0.720873  -2.181320  -4.707220   0.029635   2.778090  -0.815637   0.099091   5.555490  -1.635620   0.885597  -0.859475   0.011642   1.449790  -1.741910   6.425000  -6.425710  -1.816660   8.371960 -69.626100  19.138900   1.293460  -3.136900  -3.601400 -17.314400   8.884040  -4.590360   8.012040  48.077300  40.222600 -80.228300 -22.980300   0.000980   0.003474  -6.490140   0.001965  -0.000281 -31.435200   7.224120 -11.625200 -26.322200   0.003004   0.003911 -18.420800  -0.007737   0.003351 -28.686300  -0.690059   1.237150 -38.880500  -0.003667   0.004733 -25.894500  -0.005300  -0.000398 -26.643900  -1.268070   2.503910 -26.671900  -0.000228   0.008381 -17.757100  -0.005155   0.004554 -27.866700  -1.894690   3.571090 -41.898800   0.005716   0.001294 -27.897800   0.001576   0.004887  10.031100   1.844720   9.042970  65.705300  11.599800  -1.916040   1.115670  -4.272500  13.604600  -7.142290 -23.471800  -0.819039 -39.272900  21.190500  50.930700  23.156700   0.006099  -0.002541   6.578340   0.003949   0.002042  27.611800   1.164970   2.225890  22.610100  -0.000215  -0.001360  15.827100  -0.005284  -0.000360  25.227500  -2.071670  -4.387540  25.306900  -0.006727  -0.001123  16.854400  -0.010318  -0.000149  25.768400  -4.560650  -9.353530  26.141700  -0.004657  -0.001247  17.410300  -0.001071  -0.000217  33.246000  -5.744200  -8.681020  50.523400  -0.003811   0.001147  33.648600  -0.001731  -0.005364  -0.035662   2.227560   3.586350  -0.269477   1.314100  14.119400  -3.475200  -3.415040   6.717390   0.000000   0.000000   0.000000   3.337620   1.287790  -2.840440  -1.802050   2.996090  -5.630410 -10.487400   1.370670   1.102500   0.000000   0.000000   0.000000
  0.260572  90.070600  -0.349868  -0.722020  -2.195250  -4.707260   0.029510   2.786590  -0.815286   0.098917   5.572490  -1.634930   0.885593  -0.837062   0.011645   1.451980  -1.696670   6.435940  -6.426080  -1.813960   8.372350 -69.620800  19.178900   1.254570  -3.131250  -3.599080 -17.313300   8.881450  -4.578390   8.000900  48.103500  40.241400 -80.248900 -22.980300   0.000965   0.003464  -6.490130   0.001935  -0.000288 -31.431400   7.220390 -11.621500 -26.318900   0.003004   0.003904 -18.420800  -0.007734   0.003346 -28.686300  -0.689967   1.242280 -38.885100  -0.003633   0.004742 -25.897500  -0.005298  -0.000401 -26.643600  -1.268060   2.510690 -26.671600  -0.000233   0.008381 -17.758800  -0.005153   0.004555 -27.870300  -1.894430   3.571090 -41.899100   0.005742   0.001296 -27.901400   0.001573   0.004884  10.055800   1.809800   9.043300  65.696900  11.620700  -1.949790   1.122160  -4.302400  13.595400  -7.119690 -23.442800  -0.822665 -39.269500  21.199500  50.931100  23.182100   0.006102  -0.002539   6.591080   0.003942   0.002056  27.613200   1.151340   2.202210  22.610600  -0.000209  -0.001355  15.827400  -0.005281  -0.000354  25.229000  -2.082080  -4.409310  25.309700  -0.006738  -0.001118  16.856300  -0.010318  -0.000147  25.768700  -4.568290  -9.369700  26.144000  -0.004668  -0.001243  17.411900  -0.001076  -0.000215  33.245500  -5.753490  -8.696320  50.526300  -0.003807   0.001156  33.650500  -0.001726  -0.005373  -0.031428   2.242770   3.586240  -0.268472   1.311450  14.120700  -3.475600  -3.416000   6.712220  -0.000000   0.000000   0.000000   3.339360   1.297180  -2.844210  -1.801550   2.996660  -5.640250 -10.487500   1.370870   1.113460  -0.000000   0.000000   0.000000
  0.260709  90.070600  -0.349799  -0.724334  -2.223320  -4.707350   0.029438   2.802960  -0.813754   0.098960   5.605200  -1.631880   0.885585  -0.795221   0.011649   1.455360  -1.612020   6.460120  -6.427100  -1.806860   8.372720 -69.609600  19.252400   1.171730  -3.118380  -3.582820 -17.305300   8.877770  -4.558670   7.989670  48.153600  40.287000 -80.311700 -22.980200   0.000919   0.003440  -6.490110   0.001866  -0.000299 -31.428900   7.214060 -11.612400 -26.315500   0.003006   0.003881 -18.420800  -0.007726   0.003334 -28.686400  -0.689875   1.250730 -38.894600  -0.003562   0.004764 -25.903800  -0.005291  -0.000409 -26.643300  -1.268060   2.517480 -26.671300  -0.000246   0.008379 -17.763100  -0.005146   0.004557 -27.873800  -1.894180   3.571090 -41.899300   0.005800   0.001301 -27.904900   0.001567   0.004875  10.103600   1.743130   9.046540  65.670200  11.663600  -2.003430   1.127810  -4.332520  13.574200  -7.059450 -23.388400  -0.832049 -39.253300  21.254400  50.953500  23.245200   0.006104  -0.002536   6.622640   0.003931   0.002081  27.617400   1.136710   2.171490  22.613700  -0.000193  -0.001339  15.829600  -0.005276  -0.000340  25.248100  -2.099380  -4.441850  25.329500  -0.006764  -0.001103  16.869500  -0.010320  -0.000137  25.783400  -4.585140  -9.396590  26.160400  -0.004695  -0.001232  17.422900  -0.001089  -0.000209  33.257200  -5.773560  -8.720900  50.546600  -0.003798   0.001179  33.664100  -0.001713  -0.005388  -0.024806   2.274010   3.586170  -0.266719   1.305470  14.125700  -3.476520  -3.417000   6.701450  -0.000000   0.000000   0.000000   3.344350   1.320270  -2.852880  -1.800600   2.997180  -5.660160 -10.487900   1.371060   1.136340   0.000000   0.000000  -0.000000
  0.257492  90.070500  -0.349819  -0.729827  -2.253910  -4.703580   0.029514   2.818980  -0.810232   0.099202   5.637270  -1.624840   0.885264  -0.751990   0.011480   1.457820  -1.524190   6.485960  -6.430850  -1.792000   8.371420 -69.596600  19.314400   1.070840  -3.089150  -3.500570 -17.282300   8.871310  -4.544320   7.992730  48.221300  40.370100 -80.436600 -22.980200   0.000833   0.003405  -6.490100   0.001763  -0.000306 -31.445100   7.211170 -11.594200 -26.327600   0.003014   0.003840 -18.429300  -0.007717   0.003318 -28.686300  -0.690102   1.255780 -38.909700  -0.003468   0.004800 -25.913900  -0.005279  -0.000420 -26.654400  -1.268060   2.517000 -26.682200  -0.000265   0.008372 -17.771700  -0.005134   0.004558 -27.865500  -1.894810   3.573290 -41.887000   0.005882   0.001312 -27.896700   0.001558   0.004856  10.157500   1.672130   9.059270  65.630400  11.700000  -2.048930   1.123630  -4.258500  13.543900  -6.995380 -23.351600  -0.851686 -39.229200  21.369500  51.097800  23.342700   0.006098  -0.002550   6.671380   0.003922   0.002105  27.648700   1.135540   2.163290  22.639600  -0.000165  -0.001307  15.847700  -0.005267  -0.000323  25.301100  -2.112070  -4.457890  25.382700  -0.006800  -0.001075  16.905000  -0.010324  -0.000123  25.834200  -4.607710  -9.420420  26.213100  -0.004737  -0.001213  17.458000  -0.001106  -0.000198  33.314200  -5.800270  -8.742320  50.635500  -0.003785   0.001216  33.723200  -0.001692  -0.005404  -0.020982   2.309730   3.586260  -0.265727   1.296260  14.136300  -3.478060  -3.413460   6.688160  -0.000000   0.000000   0.000000   3.352860   1.353220  -2.864630  -1.799400   2.996620  -5.685990 -10.489600   1.368540   1.166440  -0.000000   0.000000  -0.000000
